<svg width="24" height="24" viewBox="0 0 24 24" fill="none" xmlns="http://www.w3.org/2000/svg">
<path fill-rule="evenodd" clip-rule="evenodd" d="M4 11C4 7.19899 7.19895 4 11 4C14.801 4 18 7.19895 18 11C18 14.801 14.8011 18 11 18C7.19899 18 4 14.8011 4 11ZM11 2C6.02944 2 2 6.02944 2 11C2 15.9705 6.02944 20 11 20C13.122 20 15.0726 19.2656 16.6113 18.037L19.754 21.2914L20.4486 22.0107L21.8873 20.6214L21.1926 19.902L18.0269 16.6239C19.2615 15.0832 20 13.1278 20 11C20 6.02944 15.9705 2 11 2Z" />
</svg>
