<svg width="26" height="26" viewBox="0 0 26 26" fill="none" xmlns="http://www.w3.org/2000/svg">
<path fill-rule="evenodd" clip-rule="evenodd" d="M11.2193 3.2523V7.21557C11.2193 7.48298 11.165 7.75371 11.054 8.00507C9.29353 11.9931 6.69701 13.9482 4.20601 14.3932C4.14508 14.4041 4.09562 14.435 4.0681 14.4649C4.05566 14.4784 4.05115 14.4878 4.05 14.4906L4.04957 14.4917L4.04962 20.892C4.04962 20.892 4.05185 20.895 4.05429 20.8972C4.06431 20.9066 4.07878 20.9126 4.09578 20.9116C6.13583 20.7881 7.45897 21.0067 8.47312 21.3518C8.97216 21.5216 9.37599 21.7155 9.71573 21.8827C9.74545 21.8973 9.77443 21.9116 9.80275 21.9256C10.1101 22.0772 10.3393 22.1902 10.5848 22.2772C10.723 22.3262 11.1399 22.3876 11.8657 22.4208C12.5455 22.4519 13.3856 22.4554 14.282 22.4407C16.0729 22.4113 18.0428 22.3104 19.3083 22.2263L19.3386 22.2243H19.3691C19.5083 22.2243 19.5955 22.2067 19.6451 22.1909C19.6918 22.1761 19.708 22.1623 19.7105 22.1603C19.713 22.1581 19.7199 22.1522 19.7304 22.1319C19.7423 22.109 19.7592 22.0668 19.7733 21.9964C19.8429 21.6496 19.7674 21.1455 19.6605 20.5504C19.5434 19.8991 19.8734 19.3328 20.3116 19.0423C21.0753 18.5362 21.0951 17.9234 21.0279 17.7164C20.9036 17.3336 20.8592 16.7655 21.182 16.259C21.5006 15.7593 21.4914 15.4392 21.4434 15.242C21.3849 15.0018 21.2221 14.7644 20.9902 14.5373C20.468 14.0261 20.4064 13.2455 20.7111 12.6626C20.8404 12.415 20.8399 12.254 20.821 12.1523C20.7991 12.0343 20.7328 11.8991 20.604 11.7547C20.4744 11.6094 20.3089 11.4866 20.1559 11.4024C20.0839 11.3628 20.0255 11.3378 19.9879 11.3244H14.8081V7.93852C14.8081 4.96337 14.1218 3.85986 13.5573 3.44474C12.9769 3.01789 12.1688 3.03963 11.2193 3.2523ZM14.6534 1.87149C15.9792 2.84649 16.6912 4.77879 16.6912 7.93852V9.38964H20.0561C20.2612 9.38964 20.4526 9.44359 20.5846 9.48932C20.7343 9.54114 20.8906 9.61201 21.0449 9.69691C21.3507 9.86516 21.6952 10.1144 21.9922 10.4474C22.2901 10.7813 22.5671 11.2306 22.6709 11.7901C22.7635 12.2898 22.706 12.8149 22.4833 13.3387C22.7927 13.682 23.1209 14.1591 23.2702 14.7726C23.4524 15.5211 23.3374 16.3426 22.8392 17.1858C23.1501 18.2697 22.7331 19.6051 21.5659 20.5015C21.6531 21.0141 21.7476 21.7394 21.6176 22.3872C21.5318 22.8144 21.3351 23.2893 20.9128 23.6492C20.4967 24.0039 19.9715 24.1534 19.4018 24.1589C18.1144 24.244 16.1285 24.3454 14.3121 24.3751C13.3982 24.3901 12.5158 24.3872 11.782 24.3536C11.0943 24.3222 10.4067 24.2607 9.97064 24.1061C9.61604 23.9804 9.28759 23.818 8.99768 23.6747C8.96534 23.6587 8.93347 23.643 8.90211 23.6275C8.57699 23.4675 8.26163 23.3179 7.88102 23.1884C7.13588 22.9348 6.05798 22.7309 4.20648 22.8429C3.14082 22.9074 2.1665 22.0558 2.1665 20.8926V14.4917C2.1665 13.3919 3.01804 12.6417 3.88344 12.4871C5.62341 12.1763 7.77035 10.7552 9.33616 7.21248V3.2423C9.33616 2.37582 9.90503 1.56968 10.7813 1.37029C11.7867 1.14152 13.3497 0.912819 14.6534 1.87149Z" fill="white"/>
</svg>
